<svg xmlns="http://www.w3.org/2000/svg" version="1.0" width="40" height="40" viewBox="0 0 301 295" preserveAspectRatio="xMidYMid meet">
<metadata>
Created by potrace 1.14, written by Peter Selinger 2001-2017
</metadata>
<g transform="translate(0.000000,295.000000) scale(0.100000,-0.100000)" fill="#000000" stroke="none">
<path d="M1394 2710 c-28 -18 -59 -67 -59 -95 0 -5 -12 -10 -27 -10 -48 -1 -75 -44 -46 -73 7 -7 25 -12 40 -12 31 0 41 -29 11 -32 -10 0 -24 -2 -32 -2 -7 -1 -20 -11 -28 -23 -14 -20 -13 -24 11 -48 17 -17 33 -24 45 -20 16 5 18 0 18 -33 0 -22 8 -55 17 -73 14 -28 17 -58 15 -164 -1 -71 -3 -146 -4 -165 -1 -19 -3 -56 -4 -82 -1 -46 -2 -48 -30 -48 -32 0 -151 -35 -194 -57 -78 -40 -155 -152 -170 -247 -7 -46 17 -158 44 -204 33 -57 26 -110 -26 -183 -157 -225 -198 -371 -153 -548 33 -135 92 -204 226 -271 124 -61 218 -81 407 -87 156 -5 249 4 368 35 117 31 247 135 293 236 29 64 45 191 35 276 -9 72 -56 193 -96 250 -48 66 -85 145 -85 180 0 17 14 59 32 93 17 34 37 86 44 116 26 110 -23 228 -129 311 -53 42 -167 89 -216 90 l-23 0 6 211 c4 168 8 215 20 228 9 9 21 40 27 69 10 43 16 52 34 52 24 0 55 29 55 51 0 23 -21 39 -52 39 -21 0 -28 5 -28 19 0 14 5 18 19 14 26 -7 61 14 61 36 0 24 -31 51 -58 51 -17 0 -22 6 -22 25 0 16 -15 42 -39 67 l-38 42 -119 3 c-107 3 -122 2 -150 -17z m240 -82 c17 -9 18 -21 14 -154 -4 -128 -7 -146 -25 -166 -23 -25 -23 -35 -39 -573 -4 -121 -8 -242 -9 -270 -2 -27 -3 -60 -4 -73 -1 -16 -5 -21 -13 -16 -7 5 -39 7 -72 6 l-59 -3 7 183 c3 101 8 291 11 423 3 132 8 255 11 274 4 25 0 39 -16 56 -20 22 -22 33 -21 143 2 121 5 154 16 172 8 13 173 11 199 -2z m-288 -995 c-3 -60 -6 -157 -7 -216 -1 -59 -6 -110 -11 -113 -20 -13 -48 -87 -48 -127 0 -149 148 -258 285 -210 43 15 99 63 120 103 33 63 27 167 -12 212 -12 13 -14 41 -9 150 3 73 7 170 8 216 2 96 1 96 105 57 115 -44 155 -85 178 -180 15 -67 14 -75 -35 -185 -42 -93 -43 -96 -41 -155 1 -31 13 -59 47 -110 104 -158 142 -274 135 -409 -11 -227 -204 -348 -551 -347 -312 2 -506 81 -580 237 -26 54 -31 76 -31 146 -2 127 27 207 126 348 28 41 60 90 69 109 19 36 25 133 9 153 -5 7 -21 47 -36 88 -22 63 -24 82 -17 122 12 59 30 95 67 129 48 45 146 87 206 88 l29 1 -6 -107z m237 -385 c37 -39 39 -44 33 -85 -10 -75 -46 -111 -117 -114 -75 -4 -129 43 -129 113 0 78 48 127 124 128 45 0 53 -4 89 -42z"/>
<path d="M1242 744 c-10 -20 -5 -91 7 -98 6 -4 392 -20 435 -18 10 1 23 5 27 9 12 12 14 92 2 104 -6 6 -97 13 -236 16 -213 5 -225 5 -235 -13z"/>
</g>
</svg>