<svg xmlns="http://www.w3.org/2000/svg" xmlns:xlink="http://www.w3.org/1999/xlink" version="1.1" id="Capa_1" x="0px" y="0px" width="16px" height="16px" viewBox="0 0 16 16" style="enable-background:new 0 0 16 16;" xml:space="preserve">
<g>
  <path d="M6.22,0.0C2.786,0.0,0.001,2.785,0.001,6.219c0.0,3.435,2.785,6.219,6.219,6.219   c1.321,0.0,2.546-0.412,3.552-1.114l0.001-0.001l4.613,4.613c0.086,0.086,0.222,0.088,0.31,0.0l1.243-1.243   c0.086-0.086,0.081-0.228-0.001-0.309L11.326,9.773c0.702-1.008,1.114-2.232,1.114-3.553C12.44,2.785,9.655,0.0,6.22,0.0z    M6.22,10.975c-2.627,0.0-4.756-2.129-4.756-4.756S3.594,1.463,6.22,1.463s4.756,2.129,4.756,4.756   S8.847,10.975,6.22,10.975z"/>
</g>
</svg>